<?xml version="1.0" standalone="no"?>
<!DOCTYPE svg PUBLIC "-//W3C//DTD SVG 20010904//EN"
 "http://www.w3.org/TR/2001/REC-SVG-20010904/DTD/svg10.dtd">
<svg version="1.0" xmlns="http://www.w3.org/2000/svg"
 width="105.000000pt" height="105.000000pt" viewBox="0 0 105.000000 105.000000"
 preserveAspectRatio="xMidYMid meet">

<g transform="translate(0.000000,105.000000) scale(0.100000,-0.100000)"
fill="#000000" stroke="none">
<path d="M328 984 c-57 -35 -58 -37 -58 -81 l0 -45 -36 21 c-19 12 -42 21 -49
21 -17 0 -116 -58 -127 -74 -4 -6 -8 -73 -8 -148 l0 -138 55 -36 55 -37 0
-124 c0 -146 3 -150 85 -103 30 17 55 29 55 27 0 -3 -11 -53 -26 -111 -14 -59
-22 -111 -19 -116 16 -26 59 0 222 132 141 113 179 139 192 131 66 -41 57 -40
124 -4 34 19 65 39 69 45 4 6 8 37 8 69 l0 57 50 31 50 31 0 83 0 83 -50 32
c-49 32 -50 33 -50 84 0 29 -6 59 -12 68 -18 21 -215 138 -234 138 -9 0 -37
-12 -64 -27 l-47 -27 -46 27 c-25 15 -54 27 -64 27 -10 0 -44 -17 -75 -36z
m183 -89 c53 -30 104 -55 112 -55 9 0 19 10 23 22 6 21 2 27 -42 54 -20 11
-12 34 12 34 9 0 56 -24 104 -52 l90 -53 0 -42 c0 -37 -3 -42 -31 -52 -18 -6
-42 -11 -55 -11 -27 0 -54 -25 -54 -50 0 -24 26 -50 50 -50 11 0 29 10 42 23
13 13 35 28 49 34 23 10 32 8 63 -13 35 -24 37 -28 34 -72 -3 -43 -6 -48 -48
-72 l-45 -26 -3 -67 -3 -67 -40 -20 c-49 -25 -69 -17 -39 15 24 26 23 58 -2
63 -9 2 -94 -59 -198 -143 -101 -80 -185 -144 -188 -141 -2 3 4 40 15 82 l19
78 59 36 c33 21 65 35 72 33 6 -3 21 0 32 7 24 12 29 58 9 78 -18 18 -55 14
-70 -7 -8 -10 -67 -51 -133 -89 l-120 -70 -5 101 -5 102 -52 35 -53 35 3 109
2 108 36 21 36 21 82 -48 c45 -27 86 -57 92 -67 11 -22 58 -26 77 -7 27 27 7
78 -30 78 -11 0 -32 7 -48 15 -26 14 -30 21 -30 59 0 37 5 48 28 65 15 11 33
21 41 21 8 0 58 -25 112 -55z"/>
<path d="M366 884 c-9 -22 9 -41 66 -70 46 -23 48 -26 48 -68 0 -41 -2 -44
-43 -66 l-44 -23 -101 57 c-105 60 -135 66 -140 30 -2 -17 9 -28 52 -53 45
-25 56 -36 56 -57 0 -14 -3 -24 -7 -22 -5 2 -24 12 -45 22 -41 21 -68 16 -68
-13 0 -14 25 -34 90 -71 50 -28 90 -55 90 -58 0 -4 -16 -16 -35 -26 -24 -13
-35 -26 -35 -42 0 -40 28 -35 136 26 58 33 110 60 115 60 5 0 27 -9 49 -20 22
-11 48 -20 59 -20 10 0 71 30 135 66 87 49 116 70 116 85 0 33 -30 34 -84 5
l-52 -28 -37 22 c-33 20 -37 26 -37 64 0 40 2 43 53 72 40 23 52 35 52 54 0
35 -25 36 -83 1 l-50 -29 -108 59 c-114 62 -138 69 -148 43z m205 -144 c15 -9
19 -22 19 -68 0 -65 4 -73 44 -94 l30 -16 -30 -15 c-28 -14 -32 -14 -69 9 -51
30 -66 30 -125 -3 l-47 -26 -37 22 c-25 16 -36 30 -36 47 0 28 0 28 43 8 32
-15 36 -15 86 10 71 36 91 59 91 101 0 38 2 40 31 25z"/>
</g>
</svg>
